<?xml version="1.0" encoding="UTF-8"?>
<svg id="Layer_1" xmlns="http://www.w3.org/2000/svg" version="1.1" viewBox="0 0 640 640">
  <!-- Generator: Adobe Illustrator 29.6.1, SVG Export Plug-In . SVG Version: 2.1.1 Build 9)  -->
  <defs>
    <style>
      .st0 {
        fill: #fff;
      }

      .st1 {
        fill: #fdffff;
      }

      .st2 {
        fill: #1e2f55;
      }
    </style>
  </defs>
  <rect class="st0" x="20.1" y="16.9" width="599.8" height="599.8" rx="41.9" ry="41.9"/>
  <rect class="st2" x="20.1" y="132.3" width="599.8" height="357.7"/>
  <g>
    <path class="st1" d="M118.2,375.9c3.3,3.2,5.1,6.8,5.5,10.8h-6.3c-.7-3.1-2.1-5.5-4.2-7.3-2.1-1.8-5-2.7-8.8-2.7s-8.3,1.7-11.2,5-4.3,8.4-4.3,15.2,1.3,10.1,3.8,13.6c2.6,3.5,6.4,5.2,11.5,5.2s8.2-1.8,10.7-5.5c1.3-1.9,2.3-4.5,2.9-7.6h6.3c-.6,5-2.4,9.2-5.5,12.6-3.7,4.1-8.8,6.1-15.1,6.1s-10.1-1.7-13.8-5c-4.9-4.4-7.3-11.3-7.3-20.6s1.8-12.8,5.5-17.3c4-4.9,9.5-7.3,16.5-7.3s10.6,1.6,13.9,4.8Z"/>
    <path class="st1" d="M156.9,388.8c3.1,3,4.6,7.4,4.6,13.2s-1.4,10.2-4.1,13.9c-2.7,3.7-6.9,5.5-12.6,5.5s-8.5-1.6-11.3-4.8c-2.8-3.2-4.2-7.6-4.2-13s1.5-10.5,4.4-13.9c2.9-3.5,6.9-5.2,11.9-5.2s8.2,1.5,11.3,4.5ZM153.3,411.9c1.4-2.9,2.1-6.2,2.1-9.8s-.5-5.9-1.5-7.9c-1.6-3.2-4.4-4.8-8.4-4.8s-6.1,1.4-7.7,4.1c-1.6,2.7-2.4,6-2.4,9.9s.8,6.8,2.4,9.2c1.6,2.5,4.1,3.7,7.6,3.7s6.5-1.5,7.9-4.4Z"/>
    <path class="st1" d="M168.8,385.3h5.5v6c.5-1.2,1.6-2.6,3.3-4.3,1.8-1.7,3.8-2.5,6.1-2.5s.3,0,.6,0c.3,0,.7,0,1.3.1v6.2c-.3,0-.7-.1-1-.1-.3,0-.6,0-1,0-2.9,0-5.2.9-6.8,2.8-1.6,1.9-2.4,4.1-2.4,6.5v20h-5.8v-34.8Z"/>
    <path class="st1" d="M190.3,385.5h5.7v4.6c1.2-1.6,2.5-2.8,3.8-3.7,2-1.3,4.3-1.9,7-1.9,3.9,0,7.3,1.5,10.1,4.5s4.1,7.3,4.1,12.9-2,13-6,16.2c-2.5,2.1-5.5,3.1-8.8,3.1s-4.8-.6-6.6-1.7c-1-.6-2.2-1.8-3.5-3.3v17.7h-5.8v-48.4ZM212.3,412.7c1.8-2.3,2.7-5.7,2.7-10.2s-.4-5.1-1.2-7.1c-1.5-3.8-4.3-5.7-8.3-5.7s-6.8,2-8.3,6.1c-.8,2.2-1.2,4.9-1.2,8.2s.4,5,1.2,6.8c1.5,3.6,4.3,5.4,8.3,5.4s5-1.1,6.8-3.4Z"/>
    <path class="st1" d="M252.9,388.8c3.1,3,4.6,7.4,4.6,13.2s-1.4,10.2-4.1,13.9c-2.7,3.7-6.9,5.5-12.6,5.5s-8.5-1.6-11.3-4.8c-2.8-3.2-4.2-7.6-4.2-13s1.5-10.5,4.4-13.9c2.9-3.5,6.9-5.2,11.9-5.2s8.2,1.5,11.3,4.5ZM249.3,411.9c1.4-2.9,2.1-6.2,2.1-9.8s-.5-5.9-1.5-7.9c-1.6-3.2-4.4-4.8-8.4-4.8s-6.1,1.4-7.7,4.1c-1.6,2.7-2.4,6-2.4,9.9s.8,6.8,2.4,9.2c1.6,2.5,4.1,3.7,7.6,3.7s6.5-1.5,7.9-4.4Z"/>
    <path class="st1" d="M264.9,385.3h5.5v6c.5-1.2,1.6-2.6,3.3-4.3,1.8-1.7,3.8-2.5,6.1-2.5s.3,0,.6,0c.3,0,.7,0,1.3.1v6.2c-.3,0-.7-.1-1-.1-.3,0-.6,0-1,0-2.9,0-5.2.9-6.8,2.8-1.6,1.9-2.4,4.1-2.4,6.5v20h-5.8v-34.8Z"/>
    <path class="st1" d="M305.5,399c1.3-.2,2.2-.7,2.7-1.7.3-.5.4-1.3.4-2.2,0-2-.7-3.4-2.1-4.3-1.4-.9-3.4-1.4-6.1-1.4s-5.2.8-6.5,2.5c-.7.9-1.2,2.3-1.4,4.1h-5.5c.1-4.3,1.5-7.3,4.2-9,2.7-1.7,5.8-2.5,9.3-2.5s7.4.8,9.9,2.3c2.5,1.6,3.8,4,3.8,7.3v20c0,.6.1,1.1.4,1.5.2.4.8.5,1.6.5s.6,0,.9,0c.3,0,.7,0,1-.1v4.3c-.9.3-1.6.4-2.1.5-.5,0-1.1,0-1.9,0-2,0-3.5-.7-4.4-2.1-.5-.8-.8-1.8-1-3.2-1.2,1.6-2.9,2.9-5.1,4.1-2.2,1.1-4.7,1.7-7.4,1.7s-5.9-1-7.9-2.9c-2-2-3.1-4.4-3.1-7.3s1-5.7,3-7.5,4.7-2.9,7.9-3.3l9.3-1.2ZM293.2,414.8c1.2,1,2.7,1.5,4.4,1.5s4-.5,6-1.4c3.2-1.6,4.9-4.2,4.9-7.7v-4.7c-.7.5-1.6.8-2.8,1.1-1.1.3-2.2.5-3.3.7l-3.5.5c-2.1.3-3.7.7-4.8,1.3-1.8,1-2.7,2.6-2.7,4.9s.6,3,1.8,4Z"/>
    <path class="st1" d="M325,375.6h5.9v9.7h5.5v4.8h-5.5v22.7c0,1.2.4,2,1.2,2.4.5.2,1.2.4,2.3.4s.6,0,.9,0c.3,0,.7,0,1.1-.1v4.6c-.7.2-1.4.3-2.1.4-.7,0-1.5.1-2.4.1-2.7,0-4.6-.7-5.5-2.1-1-1.4-1.5-3.2-1.5-5.4v-23h-4.7v-4.8h4.7v-9.7Z"/>
    <path class="st1" d="M363.7,386.3c2.3,1.2,4.1,2.7,5.3,4.5,1.2,1.8,1.9,3.8,2.3,6.1.3,1.6.5,4.2.5,7.7h-25.3c.1,3.5.9,6.4,2.5,8.5,1.5,2.1,3.9,3.2,7.2,3.2s5.4-1,7.2-3c1-1.2,1.7-2.5,2.1-4.1h5.7c-.2,1.3-.7,2.7-1.5,4.3-.9,1.6-1.8,2.9-2.9,3.8-1.8,1.7-3.9,2.9-6.5,3.5-1.4.3-3,.5-4.7.5-4.3,0-7.9-1.6-10.9-4.7s-4.5-7.6-4.5-13.2,1.5-10.1,4.5-13.6,6.9-5.2,11.8-5.2,4.8.6,7.1,1.7ZM365.8,399.9c-.2-2.5-.8-4.6-1.6-6.1-1.6-2.8-4.2-4.2-7.9-4.2s-4.9,1-6.7,2.9c-1.8,1.9-2.8,4.4-2.9,7.4h19.1Z"/>
    <path class="st1" d="M402.2,372.4l13.7,40.6,13.5-40.6h7.2l-17.4,47.7h-6.8l-17.4-47.7h7.1Z"/>
    <path class="st1" d="M440.8,372.4h5.9v6.6h-5.9v-6.6ZM440.8,385.5h5.9v34.6h-5.9v-34.6Z"/>
    <path class="st1" d="M474.7,386.4c1,.6,2.2,1.8,3.5,3.4v-17.6h5.6v47.8h-5.3v-4.8c-1.4,2.1-3,3.7-4.8,4.6-1.9,1-4,1.4-6.4,1.4-3.9,0-7.2-1.6-10-4.9-2.8-3.3-4.2-7.6-4.2-13s1.3-9.4,3.9-13.2,6.3-5.6,11-5.6,4.9.6,6.7,1.7ZM461.7,412.5c1.6,2.5,4.1,3.8,7.6,3.8s4.9-1.2,6.6-3.5c1.7-2.3,2.6-5.7,2.6-10s-.9-7.6-2.7-9.8c-1.8-2.1-4-3.2-6.6-3.2s-5.3,1.1-7.1,3.4c-1.8,2.2-2.7,5.6-2.7,9.9s.8,6.8,2.4,9.3Z"/>
    <path class="st1" d="M514,386.3c2.3,1.2,4.1,2.7,5.3,4.5,1.2,1.8,1.9,3.8,2.3,6.1.3,1.6.5,4.2.5,7.7h-25.3c.1,3.5.9,6.4,2.5,8.5,1.5,2.1,3.9,3.2,7.2,3.2s5.4-1,7.2-3c1-1.2,1.7-2.5,2.1-4.1h5.7c-.2,1.3-.7,2.7-1.5,4.3-.9,1.6-1.8,2.9-2.9,3.8-1.8,1.7-3.9,2.9-6.5,3.5-1.4.3-3,.5-4.7.5-4.3,0-7.9-1.6-10.9-4.7s-4.5-7.6-4.5-13.2,1.5-10.1,4.5-13.6,6.9-5.2,11.8-5.2,4.8.6,7.1,1.7ZM516.1,399.9c-.2-2.5-.8-4.6-1.6-6.1-1.6-2.8-4.2-4.2-7.9-4.2s-4.9,1-6.7,2.9c-1.8,1.9-2.8,4.4-2.9,7.4h19.1Z"/>
    <path class="st1" d="M554.7,388.8c3.1,3,4.6,7.4,4.6,13.2s-1.4,10.2-4.1,13.9-6.9,5.5-12.6,5.5-8.5-1.6-11.3-4.8c-2.8-3.2-4.2-7.6-4.2-13s1.5-10.5,4.4-13.9,6.9-5.2,11.9-5.2,8.2,1.5,11.3,4.5ZM551.1,411.9c1.4-2.9,2.1-6.2,2.1-9.8s-.5-5.9-1.5-7.9c-1.6-3.2-4.4-4.8-8.4-4.8s-6.1,1.4-7.7,4.1-2.4,6-2.4,9.9.8,6.8,2.4,9.2,4.1,3.7,7.6,3.7,6.5-1.5,7.9-4.4Z"/>
  </g>
  <rect class="st2" x="77.5" y="36.9" width="76.1" height="76.1"/>
  <rect class="st2" x="183.5" y="36.9" width="76.1" height="76.1"/>
  <rect class="st2" x="289.4" y="36.9" width="76.1" height="76.1"/>
  <rect class="st2" x="390.3" y="36.9" width="76.1" height="76.1"/>
  <rect class="st2" x="496.2" y="36.9" width="76.1" height="76.1"/>
  <rect class="st2" x="77.5" y="514" width="76.1" height="76.1"/>
  <rect class="st2" x="183.5" y="514" width="76.1" height="76.1"/>
  <rect class="st2" x="289.4" y="514" width="76.1" height="76.1"/>
  <rect class="st2" x="390.3" y="514" width="76.1" height="76.1"/>
  <rect class="st2" x="496.2" y="514" width="76.1" height="76.1"/>
  <path class="st0" d="M369.9,236.8l-22.3-22.3c-10.4-10.4-3-28.2,11.7-28.2h75.6c9.1,0,16.5,7.3,16.5,16.5v75.6c0,14.7-17.8,22-28.2,11.7l-22.3-22.3-54.9,54.9c-8.6,8.6-22.5,8.6-31.1,0l-50.4-50.4-28.4,28.4c-8.6,8.6-22.5,8.6-31.1,0-8.6-8.6-8.6-22.5,0-31.1l44-44c8.6-8.6,22.5-8.6,31.1,0l50.4,50.4,39.4-39.4h0Z"/>
</svg>