<?xml version="1.0" encoding="utf-8"?>
<!-- Generator: Adobe Illustrator 25.2.2, SVG Export Plug-In . SVG Version: 6.00 Build 0)  -->
<!DOCTYPE svg PUBLIC "-//W3C//DTD SVG 1.1//EN" "http://www.w3.org/Graphics/SVG/1.1/DTD/svg11.dtd" [
	<!ENTITY ns_extend "http://ns.adobe.com/Extensibility/1.0/">
	<!ENTITY ns_ai "http://ns.adobe.com/AdobeIllustrator/10.0/">
	<!ENTITY ns_graphs "http://ns.adobe.com/Graphs/1.0/">
	<!ENTITY ns_vars "http://ns.adobe.com/Variables/1.0/">
	<!ENTITY ns_imrep "http://ns.adobe.com/ImageReplacement/1.0/">
	<!ENTITY ns_sfw "http://ns.adobe.com/SaveForWeb/1.0/">
	<!ENTITY ns_custom "http://ns.adobe.com/GenericCustomNamespace/1.0/">
	<!ENTITY ns_adobe_xpath "http://ns.adobe.com/XPath/1.0/">
]>
<svg version="1.1" id="Layer_1" xmlns:x="&ns_extend;" xmlns:i="&ns_ai;" xmlns:graph="&ns_graphs;"
	 xmlns="http://www.w3.org/2000/svg" xmlns:xlink="http://www.w3.org/1999/xlink" x="0px" y="0px" viewBox="0 0 275.6 241.8"
	 style="enable-background:new 0 0 275.6 241.8;" xml:space="preserve">
<style type="text/css">
	.st0{fill:#E1273E;}
	.st1{fill-rule:evenodd;clip-rule:evenodd;fill:#1F2C56;}
	.st2{fill-rule:evenodd;clip-rule:evenodd;fill:#E1273E;}
	.st3{fill:#1F2C56;}
</style>
<metadata>
	<sfw  xmlns="&ns_sfw;">
		<slices></slices>
		<sliceSourceBounds  bottomLeftOrigin="true" height="185.4" width="226.5" x="663.8" y="-1513.3"></sliceSourceBounds>
	</sfw>
</metadata>
<g>
	<path class="st0" d="M28.3,207.2h-3.3v-1.1h7.9v1.1h-3.3v8.7h-1.3V207.2z"/>
	<path class="st0" d="M35.6,206.1h4.6c1.9,0,3,1,3,2.6c0,1.2-0.5,2.2-1.7,2.5v0c1.1,0.2,1.4,1.1,1.5,2c0.1,1,0,2.1,0.6,2.7h-1.5
		c-0.4-0.4-0.2-1.5-0.4-2.4c-0.2-1-0.4-1.8-1.6-1.8h-3.2v4.2h-1.3V206.1z M39.6,210.6c1.2,0,2.3-0.3,2.3-1.8c0-1-0.5-1.7-1.8-1.7
		h-3.3v3.4H39.6z"/>
	<path class="st0" d="M49.2,206.1h1.4l3.8,9.8H53l-1.1-3h-4.2l-1.1,3h-1.4L49.2,206.1z M51.6,211.8l-1.6-4.6h0l-1.7,4.6H51.6z"/>
	<path class="st0" d="M57,206.1h1.3v9.8H57V206.1z"/>
	<path class="st0" d="M62.1,206.1h1.4l5.2,8h0v-8h1.2v9.8h-1.4l-5.1-7.9h0v7.9h-1.2V206.1z"/>
	<path class="st0" d="M73.6,206.1h1.3v9.8h-1.3V206.1z"/>
	<path class="st0" d="M78.7,206.1H80l5.2,8h0v-8h1.2v9.8h-1.4l-5.1-7.9h0v7.9h-1.2V206.1z"/>
	<path class="st0" d="M94.4,205.8c2.1,0,3.9,1,4.2,3.3h-1.3c-0.3-1.5-1.4-2.2-2.9-2.2c-2.4,0-3.4,2.1-3.4,4.2c0,2.1,1.2,3.9,3.4,3.9
		c2,0,3.2-1.4,3.2-3.2h-3.1v-1.1h4.3v5.2h-0.8l-0.3-1.2c-0.8,1-2,1.5-3.2,1.5c-2.9,0-4.7-2.4-4.7-5
		C89.7,208.3,91.2,205.8,94.4,205.8z"/>
	<path class="st0" d="M109.7,207.2h-3.3v-1.1h7.9v1.1H111v8.7h-1.3V207.2z"/>
	<path class="st0" d="M116.9,206.1h1.3v4.2h5.2v-4.2h1.3v9.8h-1.3v-4.5h-5.2v4.5h-1.3V206.1z"/>
	<path class="st0" d="M128.4,206.1h6.8v1.1h-5.5v3.1h5.1v1.1h-5.1v3.4h5.5v1.1h-6.8V206.1z"/>
	<path class="st0" d="M143.7,206.1h6.8v1.1h-5.5v3.1h5.1v1.1h-5.1v3.4h5.5v1.1h-6.8V206.1z"/>
	<path class="st0" d="M156,210.8l-3.2-4.8h1.6l2.5,3.8l2.6-3.8h1.5l-3.3,4.8l3.5,5.1h-1.6l-2.6-4.1l-2.7,4.1h-1.5L156,210.8z"/>
	<path class="st0" d="M167.7,205.8c2.1,0,3.8,1.1,4.1,3.2h-1.3c-0.3-1.4-1.4-2.1-2.8-2.1c-2.3,0-3.3,1.9-3.3,4c0,2.2,1,4.1,3.3,4.1
		c1.7,0,2.7-1.2,2.8-2.8h1.3c-0.3,2.5-1.8,3.9-4.3,3.9c-3,0-4.5-2.3-4.5-5.1S164.6,205.8,167.7,205.8z"/>
	<path class="st0" d="M175,206.1h6.8v1.1h-5.5v3.1h5.1v1.1h-5.1v3.4h5.5v1.1H175V206.1z"/>
	<path class="st0" d="M184.9,206.1h4.3c2,0,3,1.1,3,2.9s-1,2.9-3,2.9h-3v4h-1.3V206.1z M186.2,210.8h2.6c1.5,0,2.1-0.6,2.1-1.8
		s-0.7-1.8-2.1-1.8h-2.6V210.8z"/>
	<path class="st0" d="M197.6,207.2h-3.3v-1.1h7.9v1.1h-3.3v8.7h-1.3V207.2z"/>
	<path class="st0" d="M204.9,206.1h1.3v9.8h-1.3V206.1z"/>
	<path class="st0" d="M214.1,205.8c3.1,0,4.7,2.5,4.7,5.2s-1.6,5.2-4.7,5.2c-3.1,0-4.7-2.5-4.7-5.2S211,205.8,214.1,205.8z
		 M214.1,215c2.4,0,3.4-2.1,3.4-4.1s-1-4.1-3.4-4.1s-3.4,2.1-3.4,4.1S211.7,215,214.1,215z"/>
	<path class="st0" d="M221.9,206.1h1.4l5.2,8h0v-8h1.2v9.8h-1.4l-5.1-7.9h0v7.9h-1.2V206.1z"/>
	<path class="st0" d="M236.1,206.1h1.4l3.8,9.8h-1.4l-1.1-3h-4.2l-1.1,3h-1.4L236.1,206.1z M238.4,211.8l-1.6-4.6h0l-1.7,4.6H238.4z
		"/>
	<path class="st0" d="M243.9,206.1h1.3v8.7h5.2v1.1h-6.5V206.1z"/>
</g>
<path class="st1" d="M182.4,124.2l-28.9-63.8c-0.5,0.9-1.2,1.5-1.8,2c-1.7,1.3-3.5,2-4.9,2.4c-2.2,0.7-4.4,1.1-6.6,1.3
	c-1.6,0.1-3.1,0.2-4.6,0.2c-0.5,0-1,0-1.4,0c-4.3-0.2-7.7-0.9-10.8-2.3c-1.3-0.6-3-1.5-4.1-3.1c-0.2-0.2-0.3-0.4-0.4-0.7l-0.4,1
	c0.2,1.1,0.3,2.2,0.5,3.3l0.1,0.4c0.1,0.4,0.1,0.7,0.2,1.1c0.1,0.5,0.2,0.9,0.2,1.4c0.1,0.7,0.2,1.3,0.3,2l0.1,1
	c0.2,1.1-0.3,2-1.4,2.6c-1,0.6-2.1,0.9-3.3,0.9c-0.4,0-0.7,0-1.1-0.1c-0.4-0.1-0.8-0.2-1.2-0.3l-23,50.7c-0.2,1.1-0.4,2.3-0.4,3.4
	c0,8.3,6.8,15.1,15.1,15.1c8.3,0,15.3-6.4,15.3-14.3h32.6c0,7.9,7,14.3,15.3,14.3c8.4,0,15.1-6.8,15.1-15.1
	C182.8,126.5,182.7,125.3,182.4,124.2z M147.2,102c-0.3,0.6-1.2,0.7-1.2,0.7h-10.1c0,0-0.4,0-0.5-0.1c-0.2-0.1-0.4-0.4-0.4-0.4
	l-2.6-4.2c0,0-0.2-0.3-0.4-0.4c-0.2-0.1-0.7-0.1-0.7-0.1h-3.1c0,0-0.7,0.1-0.9-0.3c-0.2-0.4,0.2-0.9,0.2-0.9l6.1-10
	c0,0,0.7-1.5,2.1-1.5c1.1,0,2,1.4,2,1.4l9.3,14.5C147.1,100.5,147.6,101.3,147.2,102z"/>
<path class="st0" d="M249.4,194H24.3c-0.2,0-0.4,0.2-0.4,0.4s0.2,0.4,0.4,0.4h225.1c0.2,0,0.4-0.2,0.4-0.4S249.7,194,249.4,194z"/>
<path class="st2" d="M71.8,154.8c-0.7-1.2-2.1-2.1-3.6-2.1c-0.1,0-0.3,0-0.3,0c-1.5,0-2.8,0.9-3.6,2.1l-9.1,20.9
	c-0.1,0.3-0.1,0.7-0.1,1c0,2.4,1.9,4.4,4.2,4.4c2.3,0,4.2-1.9,4.2-4.1h9c0,2.3,1.9,4.1,4.2,4.1c2.3,0,4.2-2,4.2-4.4
	c0-0.3-0.1-0.7-0.1-1L71.8,154.8z M66.5,170.6l1.5-3.7l1.5,3.7H66.5z"/>
<path class="st1" d="M142.6,154.7c-0.7-1.2-2.1-2.1-3.6-2.1c-0.1,0-0.3,0-0.3,0c-1.5,0-2.9,0.9-3.6,2.1l-9.1,21
	c-0.1,0.3-0.1,0.7-0.1,1c0,2.4,1.9,4.4,4.2,4.4c2.3,0,4.3-1.9,4.3-4.2h9.1c0,2.3,1.9,4.2,4.3,4.2c2.3,0,4.2-2,4.2-4.4
	c0-0.3-0.1-0.7-0.1-1L142.6,154.7z M137.3,170.6l1.5-3.7l1.5,3.7H137.3z"/>
<path class="st3" d="M219.6,172.2l-5.4,0v-1.9h4.4c1.8,0,3.3-1.6,3.3-3.5c0-1.9-1.5-3.5-3.4-3.5h-4.4v-1.7l5.4,0
	c2.4,0,4.3-2,4.3-4.4c0-2.5-1.9-4.5-4.2-4.5h-9.9c-2.4,0-4.4,2-4.4,4.6v19.3c0,2.5,2,4.6,4.4,4.6h9.9c2.3,0,4.2-2,4.2-4.5
	C223.9,174.2,222,172.2,219.6,172.2z"/>
<path class="st3" d="M199.1,172.2l-8.3,0c-0.8,0-1.4-0.5-2-1.6c-0.5-1.1-0.8-2.4-0.8-3.9c0-1.5,0.3-2.7,0.8-3.7
	c0.7-1.3,1.5-1.4,2-1.4l8.3,0c2.4,0,4.3-2,4.3-4.4c0-2.5-1.9-4.5-4.2-4.5h-10c-3.1,0-5.7,1.6-7.6,4.7c-1.6,2.7-2.4,6-2.4,9.8
	c0,3.8,0.8,7,2.4,9.5c1.8,3,4.4,4.5,7.6,4.5l10,0c2.3,0,4.2-2,4.2-4.5C203.5,174.2,201.5,172.2,199.1,172.2z"/>
<path class="st0" d="M102.3,157.4c-1.9-3.1-4.5-4.7-7.6-4.7H91v-0.1h-5.7c-2.4,0-4.4,2-4.4,4.6v19.3c0,2.5,2,4.6,4.4,4.6h4.6v0
	l4.8,0c3.2,0,5.8-1.5,7.6-4.5c1.6-2.6,2.4-5.8,2.4-9.5C104.7,163.5,103.9,160.2,102.3,157.4z M95.1,170.7c-0.5,1.1-1.2,1.6-1.9,1.6
	l-3.5,0v-10.5l3.5,0c0.5,0,1.3,0.1,2,1.4c0.5,1,0.8,2.2,0.8,3.6C95.9,168.3,95.6,169.6,95.1,170.7z"/>
<path class="st3" d="M177.2,157c0-2.4-1.8-4.2-4.1-4.2c-2.2,0-4,1.9-4,4.2v14l-3.9-13.4c-0.5-1.6-1.4-2.8-2.7-3.6
	c-1.2-0.8-2.5-1.2-4.1-1.2c-1.8,0-3.4,0.5-4.7,1.6c-1.5,1.3-2.3,2.9-2.3,5l0,17.5c0,2.4,1.8,4.2,4,4.2c2.3,0,4.1-1.9,4.1-4.2v-13.2
	l3.4,12c0.5,1.9,1.5,3.2,2.9,4.2c1.2,0.9,2.6,1.3,4.2,1.3c1.8,0,3.3-0.5,4.7-1.5c1.6-1.2,2.4-2.8,2.4-4.8L177.2,157z"/>
<path class="st3" d="M127.6,152.9c-1.9-0.7-4.1,0.4-4.8,2.4l-5.3,15.8l-5.3-15.8c-0.7-2.1-2.8-3.1-4.8-2.4c-2,0.7-3,2.9-2.3,4.9
	l6.4,18.9c0.4,1.3,1.6,4.4,5.9,4.4c4.4,0,5.7-2.9,6.2-4.3l6.3-18.9C130.5,155.9,129.5,153.7,127.6,152.9z"/>
<path class="st0" d="M165.3,40.9c0.2,1.2,0,1.6-1.2,2c-7.3,2.5-14.5,5-21.8,7.4c-1.8,0.6-3.7,1.2-5.5,1.9c-0.5,0.2-1,0.1-1.5,0
	c-1.2-0.5-2.5-0.8-3.7-1.3c-1-0.3-2-0.7-3-1.1c-2.6-0.9-5.3-1.8-7.9-2.7c-0.6-0.2-1.1-0.4-1.7-0.6c-0.1,0-0.4,0-0.4,0.1
	c-1.1,1.4-1.8,2.9-2.1,4.6c-0.1,0.6-0.2,1.2-0.2,1.8c0,0.1,0.1,0.4,0.3,0.4c2.3,1.3,2.2,4.4,0.3,5.6c-0.4,0.2-0.2,0.5-0.2,0.8
	c0.3,1.7,0.5,3.5,0.8,5.2c0.1,0.8,0.3,1.6,0.4,2.4c0.1,1,0.3,2,0.4,2.9c0.1,0.5-0.2,0.9-0.6,1.1c-1.1,0.6-2.2,0.8-3.4,0.6
	c-0.6-0.1-1.1-0.3-1.7-0.4c-0.8-0.5-0.9-0.7-0.7-2c0.1-0.9,0.3-1.8,0.4-2.7c0.1-0.9,0.3-1.8,0.4-2.7c0.1-0.9,0.3-1.9,0.4-2.8
	c0.1-0.6,0.2-1.3,0.3-1.9c0-0.2,0-0.4-0.2-0.5c-1.4-1-1.6-2.4-1.3-3.7c0.2-0.8,0.7-1.4,1.5-1.9c0.1-0.1,0.3-0.3,0.3-0.4
	c0-2.7,0.8-5.2,2.3-7.5c0,0,0-0.1,0.1-0.2c-0.3-0.1-0.6-0.2-0.9-0.3c-2.3-0.8-4.5-1.6-6.8-2.3c-0.4-0.1-0.9-0.2-1.1-0.6
	c-0.4-0.7-0.3-1.7,0.6-2c3.1-1.1,6.3-2.2,9.4-3.2c6-2.1,12-4.1,18.1-6.2c0.6-0.2,1.2-0.2,1.8,0c2.4,0.8,4.8,1.6,7.2,2.4
	c3.6,1.2,7.2,2.5,10.8,3.7c2.7,0.9,5.4,1.8,8.1,2.8c0.4,0.1,0.7,0.3,1.1,0.4C164.7,40.3,165,40.6,165.3,40.9z"/>
<path class="st0" d="M152,48.9c0,0.7,0.1,1.3,0.1,1.9c0.1,1.2,0.2,2.4,0.3,3.5c0,0.5,0.1,1,0.1,1.4c0,1,0.2,1.9,0.1,2.9
	c-0.1,1.1-0.9,1.9-1.8,2.6c-1.3,1-2.9,1.7-4.5,2.2c-2,0.6-4.1,1.1-6.3,1.2c-2,0.1-4,0.3-5.9,0.2c-3.5-0.2-7-0.7-10.2-2.2
	c-1.3-0.6-2.6-1.3-3.5-2.6c-0.4-0.6-0.7-1.2-0.6-1.9c0-1.2,0-2.4,0.1-3.5c0.1-1.4,0.2-2.8,0.3-4.3c0-0.4,0.1-0.7,0.1-1.1
	c0-0.4,0.1-0.4,0.5-0.3c1.5,0.5,3,1,4.5,1.6c2.2,0.8,4.4,1.5,6.7,2.3c1.1,0.4,2.2,0.7,3.3,1.1c0.7,0.3,1.4,0.2,2.1,0
	C142.1,52.2,147,50.5,152,48.9C151.9,48.9,152,48.9,152,48.9z"/>
</svg>
