<?xml version="1.0" encoding="utf-8"?>
<!-- Generator: Adobe Illustrator 24.1.2, SVG Export Plug-In . SVG Version: 6.00 Build 0)  -->
<svg version="1.1" id="Layer_1" xmlns="http://www.w3.org/2000/svg" xmlns:xlink="http://www.w3.org/1999/xlink" x="0px" y="0px"
	 viewBox="0 0 139.9 120" style="enable-background:new 0 0 139.9 120;" xml:space="preserve">
<style type="text/css">
	.st0{fill:#DD052B;}
	.st1{fill-rule:evenodd;clip-rule:evenodd;fill:#1F2C56;}
	.st2{fill:#1F2C56;}
	.st3{fill-rule:evenodd;clip-rule:evenodd;fill:#DD052B;}
</style>
<g>
	<path class="st0" d="M125,95.1H13.8c-0.1,0-0.2,0.1-0.2,0.2c0,0.1,0.1,0.2,0.2,0.2H125c0.1,0,0.2-0.1,0.2-0.2
		C125.2,95.2,125.1,95.1,125,95.1z"/>
	<path class="st1" d="M110.9,76.2h0.2l0.4,0.6h0.3l-0.4-0.6c0.2,0,0.4-0.1,0.4-0.4c0-0.3-0.2-0.4-0.5-0.4h-0.6v1.5h0.2V76.2z
		 M110.9,76v-0.4h0.3c0.1,0,0.3,0,0.3,0.2c0,0.2-0.2,0.2-0.3,0.2H110.9z M112.4,76.1c0-0.8-0.6-1.3-1.3-1.3c-0.7,0-1.3,0.5-1.3,1.3
		c0,0.8,0.5,1.3,1.3,1.3C111.8,77.4,112.4,76.9,112.4,76.1z M112.2,76.1c0,0.7-0.4,1.1-1,1.1c-0.6,0-1-0.5-1-1.1
		c0-0.6,0.4-1.1,1-1.1C111.7,75,112.2,75.4,112.2,76.1z"/>
	<path class="st0" d="M122.4,105.8v-4.6h0.6v4.1h2.4v0.5H122.4z M14,105.8v-4.6h3.2v0.5h-2.6v1.5H17v0.5h-2.4v1.6h2.6v0.5H14z
		 M18,105.8l1.6-2.4l-1.5-2.2h0.7L20,103l1.2-1.8h0.7l-1.5,2.2l1.6,2.4h-0.8l-1.2-1.9l-1.3,1.9H18z M23,105.8v-4.6h2
		c0.9,0,1.4,0.5,1.4,1.4c0,0.9-0.5,1.4-1.4,1.4h-1.4v1.9H23z M23.6,101.7v1.7h1.2c0.7,0,1-0.3,1-0.8c0-0.6-0.3-0.8-1-0.8H23.6z
		 M27.7,105.8v-4.6h3.2v0.5h-2.6v1.5h2.4v0.5h-2.4v1.6h2.6v0.5H27.7z M32.2,105.8v-4.6h2.2c0.9,0,1.4,0.5,1.4,1.2
		c0,0.6-0.2,1-0.8,1.2c0.5,0.1,0.6,0.5,0.7,1c0,0.4,0,1,0.3,1.3h-0.7c-0.2-0.2-0.1-0.7-0.2-1.1c-0.1-0.4-0.2-0.8-0.8-0.8h-1.5v2
		H32.2z M32.8,103.3h1.3c0.6,0,1.1-0.1,1.1-0.8c0-0.5-0.2-0.8-0.8-0.8h-1.5V103.3z M37.2,105.8v-4.6h0.6v4.6H37.2z M39.3,105.8v-4.6
		h3.2v0.5h-2.6v1.5h2.4v0.5h-2.4v1.6h2.6v0.5H39.3z M43.8,105.8v-4.6h0.7l2.4,3.8l0-3.8h0.6v4.6h-0.7l-2.4-3.7l0,3.7H43.8z
		 M48.8,103.5c0-1.3,0.8-2.4,2.2-2.4c1,0,1.8,0.5,1.9,1.5h-0.6c-0.1-0.7-0.6-1-1.3-1c-1.1,0-1.6,0.9-1.6,1.9c0,1.1,0.5,1.9,1.6,1.9
		c0.8,0,1.3-0.6,1.3-1.3h0.6c-0.1,1.2-0.8,1.9-2,1.9C49.5,105.9,48.8,104.9,48.8,103.5z M54.2,105.8v-4.6h3.2v0.5h-2.6v1.5h2.4v0.5
		h-2.4v1.6h2.6v0.5H54.2z M62.1,105.8v-4.1h-1.5v-0.5h3.7v0.5h-1.5v4.1H62.1z M65.3,105.8v-4.6h0.6v2h2.4v-2h0.6v4.6h-0.6v-2.1h-2.4
		v2.1H65.3z M70.5,105.8v-4.6h3.2v0.5h-2.6v1.5h2.4v0.5h-2.4v1.6h2.6v0.5H70.5z M77.3,105.8v-4.6h3.2v0.5h-2.6v1.5h2.4v0.5h-2.4v1.6
		h2.6v0.5H77.3z M81.2,105.8l1.6-2.4l-1.5-2.2h0.7l1.2,1.8l1.2-1.8h0.7l-1.5,2.2l1.6,2.4h-0.8l-1.2-1.9l-1.3,1.9H81.2z M85.9,103.5
		c0-1.3,0.8-2.4,2.2-2.4c1,0,1.8,0.5,1.9,1.5h-0.6c-0.1-0.7-0.6-1-1.3-1c-1.1,0-1.6,0.9-1.6,1.9c0,1.1,0.5,1.9,1.6,1.9
		c0.8,0,1.3-0.6,1.3-1.3h0.6c-0.1,1.2-0.8,1.9-2,1.9C86.6,105.9,85.9,104.9,85.9,103.5z M91.4,105.8v-4.6h3.2v0.5H92v1.5h2.4v0.5H92
		v1.6h2.6v0.5H91.4z M95.8,105.8v-4.6h2c0.9,0,1.4,0.5,1.4,1.4c0,0.9-0.5,1.4-1.4,1.4h-1.4v1.9H95.8z M96.5,101.7v1.7h1.2
		c0.7,0,1-0.3,1-0.8c0-0.6-0.3-0.8-1-0.8H96.5z M101.6,105.8v-4.1h-1.5v-0.5h3.7v0.5h-1.5v4.1H101.6z M104.8,105.8v-4.6h0.6v4.6
		H104.8z M106.7,103.5c0-1.3,0.7-2.4,2.2-2.4c1.5,0,2.2,1.2,2.2,2.4s-0.7,2.4-2.2,2.4C107.5,105.9,106.7,104.8,106.7,103.5z
		 M107.4,103.5c0,0.9,0.5,1.9,1.6,1.9c1.1,0,1.6-1,1.6-1.9s-0.5-1.9-1.6-1.9C107.8,101.6,107.4,102.6,107.4,103.5z M112.4,105.8
		v-4.6h0.7l2.4,3.8l0-3.8h0.6v4.6h-0.7l-2.4-3.7l0,3.7H112.4z M117.1,105.8l1.8-4.6h0.7l1.8,4.6h-0.7l-0.5-1.4h-2l-0.5,1.4H117.1z
		 M118.5,103.9h1.6l-0.8-2.2L118.5,103.9z"/>
	<path class="st2" d="M41.9,57.2h20.8c0,0,0.4,0,0.6,0.1c0.2,0.1,0.4,0.4,0.4,0.4l2.8,4.6c0,0,0.2,0.3,0.5,0.4
		c0.2,0.1,0.5,0.1,0.5,0.1h32.3c0,0,1.4,0,2.1,0.4c0.7,0.4,1.4,1.4,1.4,1.4l2,3.3c0,0,0.4,0.9,0,1.3c-0.5,0.6-1.1,0.6-1.1,0.6H69.9
		c0,0-0.5,0-0.8-0.2c-0.3-0.2-0.6-0.6-0.6-0.6l-3.4-5.7c0,0-0.2-0.4-0.4-0.5c-0.2-0.2-0.7-0.1-0.7-0.1H39.1c0,0-0.7,0.1-0.8-0.2
		c-0.2-0.4,0.1-0.8,0.1-0.8l2.5-3.9c0,0,0.2-0.4,0.5-0.5C41.5,57.2,41.9,57.2,41.9,57.2z"/>
	<path class="st2" d="M55.2,36l7.4,0c0,0,0.4,0,0.6,0.1c0.2,0.1,0.4,0.4,0.4,0.4l2.8,4.6c0,0,0.2,0.3,0.5,0.4
		c0.2,0.1,0.5,0.1,0.5,0.1H86c0,0,1.4,0,2.1,0.4c0.7,0.4,1.4,1.4,1.4,1.4l1.7,2.8c0,0,0.6,1.1,0,1.8c-0.4,0.7-1.5,0.6-1.5,0.6H69.8
		c0,0-0.5,0-0.8-0.2c-0.3-0.2-0.6-0.6-0.6-0.6L65,42.3c0,0-0.2-0.4-0.4-0.5c-0.2-0.2-0.7-0.1-0.7-0.1H52.4c0,0-0.7,0.1-0.8-0.2
		c-0.2-0.4,0.1-0.8,0.1-0.8l2.5-3.9c0,0,0.2-0.4,0.5-0.5C54.8,36,55.2,36,55.2,36z"/>
	<path class="st0" d="M69.4,14.3c1.5,0,2.6,1.8,2.6,1.8l12.3,19c0,0,0.7,1,0.2,2c-0.4,0.8-1.6,0.9-1.6,0.9H69.6c0,0-0.5,0-0.7-0.2
		c-0.2-0.1-0.5-0.5-0.5-0.5l-3.4-5.6c0,0-0.3-0.4-0.6-0.5c-0.3-0.2-0.9-0.2-0.9-0.2h-4c0,0-0.9,0.1-1.1-0.4
		c-0.3-0.6,0.3-1.2,0.3-1.2l8-13.1C66.7,16.3,67.6,14.4,69.4,14.3z"/>
	<path class="st2" d="M48.6,46.6h14.1c0,0,0.4,0,0.6,0.1c0.2,0.1,0.4,0.4,0.4,0.4l2.8,4.6c0,0,0.2,0.3,0.5,0.4
		c0.2,0.1,0.5,0.1,0.5,0.1h25.4c0,0,1.4,0,2.1,0.4c0.7,0.4,1.4,1.4,1.4,1.4l1.7,2.8c0,0,0.6,1.1,0,1.8c-0.4,0.7-1.5,0.6-1.5,0.6
		H69.9c0,0-0.5,0-0.8-0.2c-0.3-0.2-0.6-0.6-0.6-0.6l-3.4-5.7c0,0-0.2-0.4-0.4-0.5c-0.2-0.2-0.7-0.1-0.7-0.1H45.8
		c0,0-0.7,0.1-0.8-0.2c-0.2-0.4,0.1-0.8,0.1-0.8l2.5-3.9c0,0,0.2-0.4,0.5-0.5C48.2,46.6,48.6,46.6,48.6,46.6z"/>
	<path class="st0" d="M75.8,79.3c0-2.4-2.3-4.4-5.2-4.4l-6.9,0c-1.4,0-2.6,1-2.6,2.2c0,1.2,1.2,2.2,2.7,2.2l6.5,0
		c0.7,0,0.7,0,0.7,0.4c0,0.4,0,0.4-0.7,0.4c0,0-6.4,0-6.5,0c-1.5,0-2.7,0.9-2.7,2.1v4.5c0,1.2,1.2,2.1,2.7,2.1
		c1.5,0,2.7-0.9,2.7-2.1v-3.2l4.4,4.5c0.9,1,2.6,1.1,3.7,0.3c1.1-0.8,1.3-2.1,0.4-3.1L73,83.1C74.7,82.4,75.8,81,75.8,79.3z"/>
	<path class="st3" d="M55.2,75.4c-0.4-0.6-1.1-1.1-1.9-1.1c0,0-0.2,0-0.2,0c-0.8,0-1.5,0.5-1.9,1.1l-4.8,10.7c0,0.2-0.1,0.3-0.1,0.5
		c0,1.2,1,2.2,2.2,2.2c1.2,0,2.3-0.9,2.3-2.1h4.8c0,1.2,1,2.1,2.3,2.1c1.2,0,2.2-1,2.2-2.2c0-0.2,0-0.3-0.1-0.5L55.2,75.4z
		 M52.4,83.5l0.8-1.9l0.8,1.9H52.4z"/>
	<path class="st2" d="M106.2,84.4l-2.8,0v-0.9h2.3c0.9,0,1.7-0.8,1.7-1.7c0-1-0.8-1.7-1.7-1.7h-2.3v-0.8l2.8,0c1.2,0,2.2-1,2.2-2.2
		c0-1.2-1-2.2-2.2-2.2h-5.1c-1.2,0-2.3,1-2.3,2.3v9.5c0,1.2,1,2.3,2.3,2.3h5.1c1.2,0,2.2-1,2.2-2.2
		C108.5,85.4,107.5,84.4,106.2,84.4z"/>
	<path class="st2" d="M79.7,74.8c-1.2,0-2.2,0.9-2.2,2.2v9.8c0,1.2,1,2.2,2.2,2.2c1.3,0,2.2-0.9,2.2-2.2v-9.8
		C81.9,75.7,80.9,74.8,79.7,74.8z"/>
	<path class="st2" d="M97.7,76.9c0-1.2-1-2.2-2.2-2.2c-1.2,0-2.2,0.9-2.2,2.2v6.8L91,76.9c-0.3-0.8-0.7-1.4-1.5-1.8
		c-0.6-0.4-1.4-0.6-2.2-0.6c-1,0-1.9,0.3-2.6,0.8c-0.8,0.6-1.2,1.5-1.2,2.5l0,8.9c0,1.2,1,2.2,2.2,2.2c1.3,0,2.2-0.9,2.2-2.2V80
		l1.9,6.1c0.3,0.9,0.8,1.6,1.6,2.1c0.7,0.4,1.4,0.7,2.3,0.7c1,0,1.8-0.3,2.6-0.8c0.9-0.6,1.3-1.4,1.3-2.4L97.7,76.9z"/>
	<path class="st0" d="M45.1,86.4l-0.8-8.9c-0.2-2.3-1.6-2.9-3-2.9c-2.1,0-2.7,0.6-3.1,2.2l-1.1,4.2h0L36,76.8
		c-0.4-1.6-1-2.2-3.1-2.2c-1.4,0-2.8,0.6-3,2.9l-0.5,5.4l-0.3,3.5c-0.1,1.2,0.8,2.2,2,2.3c1.2,0.1,2.2-0.8,2.2-2l0.4-6.2h0l1.5,6
		c0.5,1.9,0.7,2.3,1.8,2.3c1.1,0,1.3-0.4,1.8-2.3l1.5-6h0l0.4,6.2c0.1,1.1,1.1,2,2.2,2C44.3,88.6,45.2,87.6,45.1,86.4z"/>
</g>
</svg>
