<?xml version="1.0" encoding="utf-8"?>
<!-- Generator: Adobe Illustrator 25.0.0, SVG Export Plug-In . SVG Version: 6.00 Build 0)  -->
<svg version="1.1" id="Layer_1" xmlns="http://www.w3.org/2000/svg" xmlns:xlink="http://www.w3.org/1999/xlink" x="0px" y="0px"
	 viewBox="0 0 139.9 120" style="enable-background:new 0 0 139.9 120;" xml:space="preserve">
<style type="text/css">
	.st0{fill:#DD052B;}
	.st1{fill:#002D59;}
</style>
<g>
	<path class="st0" d="M38.1,104.6H42c1.3,0,1.9-0.3,1.9-1c0-1.6-5.6-1.6-5.6-3.9c0-1.3,1.3-2,3.1-2h3.6v1h-3.8
		c-0.8,0-1.4,0.3-1.4,0.9c0,1.5,5.6,1.5,5.6,3.9c0,1.3-1.1,2.1-3.1,2.1h-4.1V104.6z"/>
	<path class="st0" d="M20.2,105.7v-5c0-1.9,1.6-3,3.8-3s3.8,1.2,3.8,3v5h-1.5v-3.6h-4v-1h4v-0.5c0-1.2-0.9-2-2.3-2
		c-1.4,0-2.3,0.7-2.3,2v5.1H20.2z"/>
	<path class="st0" d="M33.2,98.7h3.2v-1H33c-2.2,0-3.5,1-3.5,2.7v2.6c0,1.7,1.3,2.7,3.5,2.7h3.4v-1h-3.2c-1.4,0-2.2-0.5-2.2-1.6
		v-0.9h5.4v-1H31v-0.9C31,99.1,31.8,98.7,33.2,98.7z"/>
</g>
<g>
	<path class="st1" d="M76.3,105.8v-5c0-1.9,1.6-3,3.8-3c2.2,0,3.8,1.2,3.8,3v5h-1.5v-3.6h-4v-1h4v-0.5c0-1.2-0.9-2-2.3-2
		c-1.4,0-2.3,0.7-2.3,2v5.1H76.3z"/>
	<path class="st1" d="M103.4,105.6v-7.9h1.5v7.9H103.4z"/>
	<path class="st1" d="M94.1,105.6v-7.9h1.5v7.9H94.1z"/>
	<path class="st1" d="M73.5,105.6v-7.9H75v7.9H73.5z"/>
	<path class="st1" d="M98.4,97.7v5.1c0,1.2,0.7,1.8,2.3,1.8h1.5v1h-1.7c-2.2,0-3.5-1.1-3.5-2.6v-5.4H98.4z"/>
	<path class="st1" d="M68.5,97.7v5.1c0,1.2,0.7,1.8,2.3,1.8h1.5v1h-1.7c-2.2,0-3.5-1.1-3.5-2.6v-5.4H68.5z"/>
	<path class="st1" d="M106.2,97.7h7v1h-2.8v6.9h-1.5v-6.9h-2.8V97.7z"/>
	<path class="st1" d="M117.3,105.6v-3.1c-2-0.3-2.8-1.4-2.8-2.4v-2.4h1.5v2.4c0,0.9,0.8,1.4,2.1,1.4c1.3,0,2.1-0.5,2.1-1.4v-2.4h1.5
		v2.4c0,1-0.9,2.1-2.9,2.4v3.1H117.3z"/>
	<path class="st1" d="M50.2,98.7h3.7c1,0,1.9,0.5,1.9,1.3c0,0.9-1,1.3-2.3,1.3h-3.3v4.5h1.5v-3.5H54c1.4,0,2,0.5,2,1.3v2.2h1.5v-2.2
		c0-1.2-0.5-1.6-1.5-1.8c0.9-0.4,1.3-1,1.3-1.8c0-1.2-1.4-2.3-3.4-2.3h-3.7V98.7z"/>
	<path class="st1" d="M62.5,98.7h3.2v-1h-3.4c-2.2,0-3.5,1-3.5,2.7v2.6c0,1.7,1.3,2.7,3.5,2.7h3.4v-1h-3.2c-1.4,0-2.2-0.5-2.2-1.6
		v-0.9h5.4v-1h-5.4v-0.9C60.3,99.2,61.1,98.7,62.5,98.7z"/>
	<path class="st1" d="M91.2,101.5c0.8-0.3,1.1-0.9,1.1-1.6c0-1.4-1.5-2.2-3.6-2.2h-3.5v8.1h4.3c1.9,0,3.3-0.9,3.3-2.2
		C92.8,102.6,92.3,102,91.2,101.5z M89.1,104.8h-2.4v-6.1h2.2c1.1,0,2,0.4,2,1.3c0,0.6-0.7,1.2-2,1.2h-1.5v1h1.8
		c1.4,0,2.2,0.4,2.2,1.3C91.3,104.3,90.7,104.8,89.1,104.8z"/>
</g>
<path class="st0" d="M121.2,90.3H20.4c-0.1,0-0.3,0.1-0.3,0.3c0,0.1,0.1,0.3,0.3,0.3h100.8c0.1,0,0.3-0.1,0.3-0.3
	C121.5,90.4,121.3,90.3,121.2,90.3z"/>
<g>
	<path class="st1" d="M35.9,66.2h25.3c0,0,0.5,0,0.7,0.2c0.2,0.1,0.4,0.5,0.4,0.5l3.3,5.6c0,0,0.3,0.4,0.6,0.5
		c0.2,0.1,0.6,0.1,0.6,0.1h39.3c0,0,1.6,0,2.5,0.5c0.8,0.4,1.7,1.7,1.7,1.7l2.4,4.1c0,0,0.5,1.1,0,1.6c-0.6,0.8-1.3,0.7-1.3,0.7H70
		c0,0-0.6,0-1-0.2c-0.3-0.2-0.7-0.7-0.7-0.7l-4.2-6.9c0,0-0.2-0.5-0.5-0.6c-0.3-0.2-0.9-0.2-0.9-0.2H32.5c0,0-0.8,0.1-1-0.3
		c-0.3-0.4,0.1-0.9,0.1-0.9l3-4.8c0,0,0.3-0.5,0.6-0.6C35.4,66.2,35.9,66.2,35.9,66.2z"/>
	<path class="st1" d="M52.1,40.5l9,0c0,0,0.5,0,0.7,0.2c0.2,0.1,0.4,0.5,0.4,0.5l3.3,5.6c0,0,0.3,0.4,0.6,0.5
		c0.2,0.1,0.6,0.1,0.6,0.1h22.8c0,0,1.6,0,2.5,0.5c0.8,0.4,1.7,1.7,1.7,1.7l2,3.4c0,0,0.7,1.3,0.1,2.2c-0.5,0.8-1.8,0.8-1.8,0.8
		H69.8c0,0-0.6,0-1-0.2c-0.3-0.2-0.7-0.7-0.7-0.7L64.1,48c0,0-0.2-0.5-0.5-0.6c-0.3-0.2-0.9-0.2-0.9-0.2h-14c0,0-0.8,0.1-1-0.3
		c-0.3-0.4,0.1-0.9,0.1-0.9l3-4.8c0,0,0.3-0.5,0.6-0.6C51.6,40.5,52.1,40.5,52.1,40.5z"/>
	<path class="st0" d="M69.4,14.1c1.8,0,3.2,2.2,3.2,2.2l14.9,23.1c0,0,0.8,1.2,0.2,2.4c-0.5,1-1.9,1.1-1.9,1.1H69.6
		c0,0-0.6,0-0.9-0.2c-0.3-0.2-0.6-0.6-0.6-0.6l-4.2-6.8c0,0-0.4-0.4-0.7-0.6c-0.4-0.2-1-0.2-1-0.2h-4.9c0,0-1.1,0.1-1.4-0.5
		c-0.3-0.7,0.4-1.5,0.4-1.5l9.8-15.9C66.1,16.5,67.2,14.1,69.4,14.1z"/>
	<path class="st1" d="M44,53.3h17.2c0,0,0.5,0,0.7,0.2c0.2,0.1,0.4,0.5,0.4,0.5l3.3,5.6c0,0,0.3,0.4,0.6,0.5
		c0.2,0.1,0.6,0.1,0.6,0.1h30.9c0,0,1.6,0,2.5,0.5c0.8,0.4,1.7,1.7,1.7,1.7l2,3.4c0,0,0.7,1.3,0.1,2.2c-0.5,0.8-1.8,0.8-1.8,0.8H70
		c0,0-0.6,0-1-0.2c-0.3-0.2-0.7-0.7-0.7-0.7l-4.2-6.9c0,0-0.2-0.5-0.5-0.6c-0.3-0.2-0.9-0.2-0.9-0.2H40.6c0,0-0.8,0.1-1-0.3
		c-0.3-0.4,0.1-0.9,0.1-0.9l3-4.8c0,0,0.3-0.5,0.6-0.6C43.5,53.3,44,53.3,44,53.3z"/>
	<path class="st0" d="M66.1,16.5"/>
</g>
</svg>
