<?xml version="1.0" encoding="utf-8"?>
<!-- Generator: Adobe Illustrator 25.2.2, SVG Export Plug-In . SVG Version: 6.00 Build 0)  -->
<!DOCTYPE svg PUBLIC "-//W3C//DTD SVG 1.1//EN" "http://www.w3.org/Graphics/SVG/1.1/DTD/svg11.dtd" [
	<!ENTITY ns_extend "http://ns.adobe.com/Extensibility/1.0/">
	<!ENTITY ns_ai "http://ns.adobe.com/AdobeIllustrator/10.0/">
	<!ENTITY ns_graphs "http://ns.adobe.com/Graphs/1.0/">
	<!ENTITY ns_vars "http://ns.adobe.com/Variables/1.0/">
	<!ENTITY ns_imrep "http://ns.adobe.com/ImageReplacement/1.0/">
	<!ENTITY ns_sfw "http://ns.adobe.com/SaveForWeb/1.0/">
	<!ENTITY ns_custom "http://ns.adobe.com/GenericCustomNamespace/1.0/">
	<!ENTITY ns_adobe_xpath "http://ns.adobe.com/XPath/1.0/">
]>
<svg version="1.1" id="Layer_1" xmlns:x="&ns_extend;" xmlns:i="&ns_ai;" xmlns:graph="&ns_graphs;"
	 xmlns="http://www.w3.org/2000/svg" xmlns:xlink="http://www.w3.org/1999/xlink" x="0px" y="0px" viewBox="0 0 580.1 367.3"
	 style="enable-background:new 0 0 580.1 367.3;" xml:space="preserve">
<style type="text/css">
	.st0{clip-path:url(#SVGID_2_);fill:#00943F;}
	.st1{clip-path:url(#SVGID_2_);fill:#1B3054;}
	.st2{clip-path:url(#SVGID_2_);fill-rule:evenodd;clip-rule:evenodd;fill:#00943F;}
</style>
<metadata>
	<sfw  xmlns="&ns_sfw;">
		<slices></slices>
		<sliceSourceBounds  bottomLeftOrigin="true" height="367.3" width="580.1" x="0" y="0"></sliceSourceBounds>
	</sfw>
</metadata>
<g>
	<defs>
		<rect id="SVGID_1_" width="580.1" height="367.3"/>
	</defs>
	<clipPath id="SVGID_2_">
		<use xlink:href="#SVGID_1_"  style="overflow:visible;"/>
	</clipPath>
	<path class="st0" d="M472.7,153c0,0-13.6-29.3-66.2-29.9c0,0,12.9,43.9,53.1,39.2c0,0,7.6-8-29.5-23.1c0,0,50.6,3.7,41.4,38.8
		c-1.5,5.5-8.4,16.5-8.4,16.5s3.5-0.3,5.6-0.3c2.2,0,5,0.1,5,0.1s8.1-11.4,7.3-21s-4-24.3,2.8-33.3c0,0,3.4-9.5,33.4-22.1
		c0,0-33.3,21.1-28.8,33.9c0,0,37.5-2.6,53.8-52.7C542.2,99.1,469.4,98.4,472.7,153"/>
	<path class="st0" d="M402.5,230c0-23-22.2-41.6-49.4-41.6l-65,0c-13.7,0-24.5,9.4-24.5,20.9c0,11.4,11.2,20.6,25.2,20.6l61.4,0
		c9,0,9,7.9,0,7.9l-61.4,0c-14,0-25.2,8.9-25.2,20.3v42.6c0,11.4,11.3,20.2,25.3,20.2c14.3,0,25.5-8.9,25.5-20.2v-30.5l41.8,42.4
		c8.9,9,24.8,10.5,35.4,3.3c10.8-7.3,12.6-20.3,4-29.1l-20.3-20.6C391.5,259.7,402.5,246.1,402.5,230"/>
	<path class="st1" d="M252,137.1l-26.6,0v-8.8H247c8.9,0,16.2-7.3,16.2-16.3c0-9-7.4-16.3-16.5-16.3h-21.3v-7.8l26.6-0.1
		c11.7,0,21.2-9.3,21.2-20.8c0-11.6-9.3-21-20.6-21h-48.4c-11.8,0-21.4,9.6-21.4,21.3v90.4c0,11.7,9.6,21.3,21.4,21.3h48.4
		c11.4,0,20.6-9.4,20.6-21C273.2,146.4,263.6,137.1,252,137.1"/>
	<path class="st0" d="M238.2,279.4l-26.6,0v-8.8h21.6c8.9,0,16.2-7.3,16.2-16.3c0-9-7.4-16.3-16.5-16.3h-21.3v-7.8l26.6-0.1
		c11.7,0,21.2-9.3,21.2-20.8c0-11.6-9.3-21-20.6-21h-48.4c-11.8,0-21.4,9.6-21.4,21.3v90.4c0,11.7,9.6,21.3,21.4,21.3h48.4
		c11.4,0,20.6-9.4,20.6-21C259.4,288.7,249.9,279.4,238.2,279.4"/>
	<path class="st1" d="M177.7,67.2c0-11.4-9.3-20.4-21.2-20.4c-11.7,0-21.1,8.9-21.1,20.4v64.3l-20.5-64.2
		c-2.4-7.5-7.1-13.4-13.8-17.5C95,46,87.9,44.1,80,44.1c-9.5,0-17.8,2.6-24.7,7.8C47.5,58,43.5,66.1,43.5,75.8l0,84
		c0,11.4,9.4,20.4,21.1,20.4c11.9,0,21.2-8.9,21.2-20.4V96.6l17.8,57.5c2.8,8.9,7.8,15.6,15.1,20.3c6.2,4.2,13.5,6.2,22.1,6.2
		c9.2,0,17.4-2.4,24.2-7.3c8.2-5.6,12.6-13.5,12.6-22.9L177.7,67.2z"/>
	<path class="st1" d="M395.8,47.1h-97.1c-11.4,0-20.6,9.4-20.6,21c0,11.5,9.5,20.8,21.2,20.8l26.6,0.1l-0.2,69.1
		c0,11.8,9.8,21.3,21.8,21.3c11.9,0,21.5-9.8,21.5-21.9l-0.2-68.5l26.6-0.1c11.7,0,21.2-9.3,21.2-20.8
		C416.5,56.6,407.2,47.1,395.8,47.1"/>
	<path class="st0" d="M143.7,280.2l-55.5,0l49.7-20.2c8.7-3.4,15.5-8.8,20.2-15.9c4.5-6.7,6.8-13.8,6.8-21.3c0-9.8-3.4-18-10.2-24.6
		c-6.8-6.3-15.2-9.1-25-9.1L60.3,189c-11.4,0-20.6,9.4-20.6,21c0,11.4,9.5,20.8,21.2,20.8l51.1,0.1L66.9,249
		c-17.8,7.1-27.2,19.7-27.2,36.5c0,9.7,3.2,18.1,9.5,25.1C55.9,318.1,64.5,322,74,322l70.2,0c11.4,0,20.6-9.4,20.6-21
		C164.9,289.5,155.4,280.2,143.7,280.2"/>
	<path class="st2" d="M517.9,201.4c-23.5-18.8-57.9-19-82.6,0.1c-0.5,0.4-0.4,1.2,0,1.7l13.4,13.4c2.8,2.8,3.1,7.5,0.3,10.2
		c-2.8,2.8-7.7,2.6-10.4-0.2l-13.4-13.4c-0.4-0.5-1.1-0.6-1.5-0.1c-18.8,23.5-19.1,58,0,82.8c0.4,0.5,1,0.2,1.5-0.1l13.4-13.4
		l0.2-0.2c2.8-2.8,7.5-2.8,10.2,0c2.8,2.8,2.4,7.5-0.3,10.2l-13.4,13.4c-0.5,0.4-0.4,1.2,0,1.7c23.5,18.8,58,19.1,82.8,0
		c0,0,0.7-0.7-0.3-1.7l-13.4-13.4c-2.8-2.8-2.6-7.3,0.2-10c2.8-2.8,7.2-2.8,9.8,0l13.4,13.4c0.4,0.5,1.8,0.2,1.9,0.1
		c18.8-23.5,19.1-58,0-82.8c-0.4-0.5-1.3-0.2-1.9,0.1l-13.4,13.4c-2.8,2.8-7.2,2.8-9.8,0c-2.8-2.8-2.9-7.3-0.2-10l13.4-13.4
		c0.5-0.4,0.8-1.2,0.3-1.7C518,201.5,517.9,201.4,517.9,201.4 M460.1,271c-9.1-9.1-9.1-24,0-33.1c9.1-9.1,24-9.1,33.1,0
		c9.1,9.1,9.1,24,0,33.1C484,280.2,469.2,280.2,460.1,271"/>
</g>
</svg>
