<svg id="Layer_1" data-name="Layer 1" xmlns="http://www.w3.org/2000/svg" viewBox="0 0 119.62 102.05"><title>AES PUMP logo</title><path d="M27.23,72H28.8L28,70.18,27.23,72Zm13.52,4.78a2,2,0,0,0,1.81-1.23l.08,0a2,2,0,0,0,1.92,1.36h7.68a4.15,4.15,0,0,0,4.14-4.25,4,4,0,0,0-4.08-4.06H46.9s-.39-.16-.39-.35.42-.34.42-.34h7.38a2,2,0,1,0,0-4H46.79a4.28,4.28,0,0,0-4.27,4.28,4.17,4.17,0,0,0,4.27,4.15h4.88s.38,0,.38.29-.38.37-.38.37H44.53a2,2,0,0,0-1.87,1.28,2,2,0,0,0-1.94-1.51H38.08v-.93h2.17a1.53,1.53,0,0,0,1.53-1.54,1.55,1.55,0,0,0-1.55-1.54H38.08v-.88l2.66,0a2,2,0,0,0,2-2,2,2,0,0,0-2-2H36.06a2,2,0,0,0-2,2v7.81l-4.23-8.75a2.22,2.22,0,0,0-1.93-1.13,2.08,2.08,0,0,0-1.72,1l-4.33,9.58a2.22,2.22,0,0,0-.06.45,2,2,0,0,0,2,2,2,2,0,0,0,2-1.89h4.45a1.84,1.84,0,0,0,1.93,1.85Z" style="fill:#dd052b;fill-rule:evenodd"/><path d="M111.13,83.35H7.52a.2.2,0,1,1,0-.4H111.13a.2.2,0,0,1,0,.4Z" style="fill:#dd052b"/><path d="M9.71,89h.89L13,94.43h-.9l-.66-1.63H8.85l-.68,1.63H7.33Zm1.45,3.18-1-2.53h0l-1,2.53Z" style="fill:#dd052b"/><path d="M18.17,90.6c-.1-.78-.67-1.1-1.51-1.1-.69,0-1.36.22-1.36.92,0,1.34,3.89.4,3.89,2.53,0,1.15-1.27,1.61-2.38,1.61-1.36,0-2.51-.6-2.51-1.91h.77c0,.91.85,1.3,1.77,1.3.73,0,1.54-.2,1.54-1,0-1.49-3.89-.51-3.89-2.5,0-1.09,1.09-1.58,2.2-1.58s2.2.52,2.24,1.71Z" style="fill:#dd052b"/><path d="M24.76,90.6c-.09-.78-.66-1.1-1.51-1.1-.69,0-1.36.22-1.36.92,0,1.34,3.89.4,3.89,2.53,0,1.15-1.27,1.61-2.37,1.61-1.37,0-2.52-.6-2.52-1.91h.77c0,.91.85,1.3,1.77,1.3.73,0,1.54-.2,1.54-1,0-1.49-3.89-.51-3.89-2.5,0-1.09,1.09-1.58,2.21-1.58s2.19.52,2.24,1.71Z" style="fill:#dd052b"/><path d="M27.84,89H32v.61H28.65v1.72h3.16V92H28.65v1.88h3.41v.6H27.84Z" style="fill:#dd052b"/><path d="M35.5,89.63h-2V89h4.86v.61h-2v4.8h-.8Z" style="fill:#dd052b"/><path d="M43.54,89h1.11l1.92,4.55L48.49,89H49.6v5.41h-.77v-4.5h0l-1.9,4.5h-.68l-1.9-4.5h0v4.5h-.77Z" style="fill:#dd052b"/><path d="M53.67,89h.89l2.38,5.41H56l-.66-1.63H52.81l-.68,1.63h-.84Zm1.45,3.18-1-2.53h0l-1,2.53Z" style="fill:#dd052b"/><path d="M58.6,89h.86l3.2,4.39h0V89h.77v5.41h-.89l-3.17-4.34h0v4.34H58.6Z" style="fill:#dd052b"/><path d="M67.49,89h.89l2.38,5.41h-.9L69.2,92.8H66.63l-.69,1.63h-.83Zm1.45,3.18-1-2.53h0l-1,2.53Z" style="fill:#dd052b"/><path d="M74.87,88.89c1.32,0,2.4.53,2.62,1.8h-.81c-.16-.82-.9-1.19-1.81-1.19a2.06,2.06,0,0,0-2.08,2.29A2,2,0,0,0,74.87,94a1.72,1.72,0,0,0,1.95-1.76H74.88v-.61h2.67v2.85H77l-.22-.67a2.55,2.55,0,0,1-1.95.8,2.84,2.84,0,1,1,0-5.67Z" style="fill:#dd052b"/><path d="M79.81,89H84v.61H80.62v1.72h3.16V92H80.62v1.88H84v.6H79.81Z" style="fill:#dd052b"/><path d="M86.11,89h1.11l1.91,4.55L91.06,89h1.1v5.41H91.4v-4.5h0l-1.9,4.5h-.69l-1.9-4.5h0v4.5h-.77Z" style="fill:#dd052b"/><path d="M94.58,89h4.2v.61H95.39v1.72h3.16V92H95.39v1.88h3.42v.6H94.58Z" style="fill:#dd052b"/><path d="M100.86,89h.85l3.21,4.39h0V89h.77v5.41h-.89l-3.17-4.34h0v4.34h-.76Z" style="fill:#dd052b"/><path d="M109.47,89.63h-2V89h4.86v.61h-2v4.8h-.8Z" style="fill:#dd052b"/><path d="M93.09,67.7v.66h2.14s.38,0,.38-.29-.38-.37-.38-.37Zm-4-2a1.94,1.94,0,0,1,2-1.94H95.8a4.15,4.15,0,0,1,4.14,4.25,4,4,0,0,1-4.09,4.06H93.07v2.73a1.94,1.94,0,0,1-2,1.94,2,2,0,0,1-2-1.94l0-9.1Z" style="fill:#002d59"/><path d="M60.71,67.7v.66h2.14s.4,0,.38-.29-.38-.37-.38-.37Zm-4-2a1.94,1.94,0,0,1,2-1.94h4.73a4.15,4.15,0,0,1,4.14,4.25,4,4,0,0,1-4.09,4.06H60.69v2.73a1.94,1.94,0,0,1-2,1.94,2,2,0,0,1-2-1.94l0-9.1Z" style="fill:#002d59"/><path d="M88.65,75.07a1.92,1.92,0,0,1-2,2,1.85,1.85,0,0,1-1.93-2V68.51a.38.38,0,0,0-.34-.32c-.27,0-.32.32-.32.32v6.56a1.87,1.87,0,0,1-1.9,2,1.79,1.79,0,0,1-1.84-2l-.06-6.49s0-.39-.32-.39-.34.39-.34.39v6.49a1.87,1.87,0,0,1-1.9,2,1.78,1.78,0,0,1-1.84-2V68a4,4,0,0,1,4.06-4.09,4.36,4.36,0,0,1,2.19.58,4.27,4.27,0,0,1,6.52,3.5v7.13Z" style="fill:#002d59;stroke:#002d59;stroke-miterlimit:3.863708019256592;stroke-width:0.11874892238159201px"/><path d="M72.58,76.56a5.5,5.5,0,0,1-1.42.22,4.44,4.44,0,0,1-1.44-.22,4.1,4.1,0,0,1-2.83-3.92v-6.9a2,2,0,0,1,2-1.94,1.91,1.91,0,0,1,2,1.94l0,6.33s0,.39.36.38.36-.38.36-.38l-.05-6.33a1.91,1.91,0,0,1,2-1.94,2,2,0,0,1,2,1.94v6.9a4.1,4.1,0,0,1-2.83,3.92Z" style="fill:#002d59;stroke:#002d59;stroke-miterlimit:3.863708019256592;stroke-width:0.11874892238159201px"/><path d="M101.57,63.93h-.46v1.28h-.25V63.93h-.46v-.2h1.17Zm1.93,1.28h-.25V64h0l-.49,1.23h-.15L102.12,64h0v1.23h-.25V63.73h.38l.44,1.13.44-1.13h.37Z" style="fill:#002d59"/><path d="M33.68,47.4H53.06a1.51,1.51,0,0,1,.57.14,1.53,1.53,0,0,1,.33.34l2.57,4.28a1.22,1.22,0,0,0,.42.39,1.2,1.2,0,0,0,.47.06H87.51a5.26,5.26,0,0,1,1.95.38,5.38,5.38,0,0,1,1.32,1.28l1.88,3.1s.35.84,0,1.26a1.23,1.23,0,0,1-1,.55H59.78a2.09,2.09,0,0,1-.73-.16,1.93,1.93,0,0,1-.52-.54L55.34,53.2a1.35,1.35,0,0,0-.37-.47,1.46,1.46,0,0,0-.7-.12H31.06s-.61.06-.78-.22a.74.74,0,0,1,.08-.73L32.67,48a1,1,0,0,1,1-.6Z" style="fill:#002d59"/><path d="M46.06,27.71H53a1.51,1.51,0,0,1,.57.14,1.49,1.49,0,0,1,.33.35l2.57,4.28a1.33,1.33,0,0,0,.42.39,1.34,1.34,0,0,0,.47.05H74.79a5.44,5.44,0,0,1,1.94.38,5.38,5.38,0,0,1,1.32,1.28l1.57,2.59a1.93,1.93,0,0,1,0,1.72,1.83,1.83,0,0,1-1.42.6H59.68a1.87,1.87,0,0,1-.73-.16,1.93,1.93,0,0,1-.52-.54l-3.19-5.28a.91.91,0,0,0-1.07-.59H43.45s-.62.06-.79-.22a.72.72,0,0,1,.09-.72l2.3-3.66a1.59,1.59,0,0,1,.44-.5,1.49,1.49,0,0,1,.57-.11Z" style="fill:#002d59"/><path d="M59.33,7.49c1.41,0,2.42,1.66,2.42,1.66L73.19,26.86a2,2,0,0,1,.18,1.84,1.9,1.9,0,0,1-1.47.82H59.47a2.13,2.13,0,0,1-.67-.17,2,2,0,0,1-.48-.47l-3.19-5.2a2.16,2.16,0,0,0-.52-.46,2.24,2.24,0,0,0-.8-.16H50.07s-.84.06-1-.39.27-1.14.27-1.14l7.5-12.2s.89-1.84,2.54-1.84Z" style="fill:#dd052b"/><path d="M39.9,37.54H53.06a1.51,1.51,0,0,1,.57.14A1.49,1.49,0,0,1,54,38l2.57,4.28a1.33,1.33,0,0,0,.42.39,1.34,1.34,0,0,0,.47,0H81.1a5.44,5.44,0,0,1,1.94.38,5.38,5.38,0,0,1,1.32,1.28L85.92,47a1.93,1.93,0,0,1,0,1.72,1.83,1.83,0,0,1-1.42.6H59.78a1.87,1.87,0,0,1-.73-.16,1.93,1.93,0,0,1-.52-.54l-3.19-5.28a.91.91,0,0,0-1.07-.59h-17s-.62.06-.78-.22a.72.72,0,0,1,.08-.72l2.31-3.66a1.65,1.65,0,0,1,.43-.5,1.49,1.49,0,0,1,.57-.11Z" style="fill:#002d59"/></svg>